# xmcd
#
# Track frame offsets:
#	182
#	10080
#	27932
#	40552
#	51745
#	61480
#	71960
#	85880
#	98567
#	105035
#	116062
#	135195
#
# Disc length: 2113 seconds
#
# Revision: 4
# Processed by: cddbd v1.5PL3 Copyright (c) Steve Scherf et al.
# Submitted via: MusicManager 7.0.6.0 
#
DISCID=94083f0c
DTITLE=Eric Clapton - Early Greatest
DYEAR=1995
DGENRE=Blues
TTITLE0=I'm Your Witchdoctor
TTITLE1=Telephone Blues
TTITLE2=On Top Of The World
TTITLE3=Snake Drive
TTITLE4=Tribute To Elmore
TTITLE5=West Coast Idea
TTITLE6=Draggin' My Tail
TTITLE7=Freight Loader
TTITLE8=Choker
TTITLE9=Miles Road
TTITLE10=Take It Easy
TTITLE11=Here 'T Is
EXTD=YEAR: 1995 ID3G: 0
EXTT0=(Mayall)
EXTT1=(Mayall)
EXTT2=(Mayall)
EXTT3=(Clapton/Page)
EXTT4=(Clapton/Page)
EXTT5=(Clapton/Page)
EXTT6=(Clapton/Page)
EXTT7=(Clapton/Page)
EXTT8=(Clapton/Page)
EXTT9=(Clapton/Page)
EXTT10=(Mizzy/Debra/Taylor)
EXTT11=(MacDaniels)
PLAYORDER=
